<?xml version="1.0" standalone="no"?>
<!DOCTYPE svg PUBLIC "-//W3C//DTD SVG 20010904//EN"
 "http://www.w3.org/TR/2001/REC-SVG-20010904/DTD/svg10.dtd">
<svg version="1.0" xmlns="http://www.w3.org/2000/svg"
 width="256.000000pt" height="256.000000pt" viewBox="0 0 256.000000 256.000000"
 preserveAspectRatio="xMidYMid meet">

<g transform="translate(0.000000,256.000000) scale(0.100000,-0.100000)"
fill="#000000" stroke="none">
<path d="M497 2546 c-54 -20 -111 -60 -141 -99 -58 -76 -56 -26 -56 -1166 0
-1159 -3 -1098 64 -1178 19 -21 58 -52 87 -68 l54 -30 775 0 775 0 54 30 c29
16 68 47 87 69 60 70 65 99 62 415 l-3 282 -91 -78 -92 -78 -3 -193 -4 -194
-33 -29 -32 -29 -720 0 -720 0 -32 29 -33 29 0 1022 0 1022 33 29 32 29 720 0
720 0 32 -29 33 -29 4 -194 3 -193 92 -78 91 -78 3 282 c3 316 -2 345 -62 415
-19 22 -58 53 -87 69 l-54 30 -760 2 c-622 2 -767 0 -798 -11z"/>
<path d="M1597 1902 c-14 -16 -17 -43 -17 -170 l0 -152 -292 0 c-307 0 -357
-6 -383 -43 -22 -32 -22 -482 0 -514 26 -37 76 -43 383 -43 l292 0 0 -148 c0
-170 7 -192 65 -192 29 0 75 37 397 315 199 173 363 320 363 325 0 5 -164 152
-363 325 -317 274 -368 315 -396 315 -19 0 -40 -8 -49 -18z"/>
</g>
</svg>
